<svg width="90" height="112" viewBox="0 0 90 112" fill="none" xmlns="http://www.w3.org/2000/svg">
<path d="M39 106C39 109.314 41.6863 112 45 112C48.3137 112 51 109.314 51 106L39 106ZM49.2426 1.75736C46.8995 -0.585786 43.1005 -0.585787 40.7574 1.75736L2.5736 39.9411C0.23045 42.2843 0.230449 46.0833 2.5736 48.4264C4.91674 50.7696 8.71573 50.7696 11.0589 48.4264L45 14.4853L78.9411 48.4264C81.2843 50.7696 85.0833 50.7696 87.4264 48.4264C89.7696 46.0833 89.7696 42.2843 87.4264 39.9411L49.2426 1.75736ZM51 106L51 6L39 6L39 106L51 106Z" fill="#333333"/>
</svg>
